<svg width="12" height="10" viewBox="0 0 12 10" fill="none" xmlns="http://www.w3.org/2000/svg">
<path d="M8.07742 0.916846C8.0006 0.824757 7.88863 0.769237 7.76887 0.763869C7.64911 0.758418 7.53252 0.803624 7.44774 0.888415C7.36303 0.973206 7.31774 1.0897 7.32319 1.20946C7.32864 1.32931 7.38416 1.44128 7.47625 1.51801L10.5435 4.58871H0.405404C0.258046 4.59659 0.125108 4.67971 0.0536545 4.80878C-0.0178848 4.93777 -0.0178848 5.09453 0.0536545 5.22359C0.12511 5.35266 0.258042 5.43578 0.405404 5.44357H10.5435L7.47153 8.51084C7.3942 8.59185 7.35109 8.69946 7.35109 8.81142C7.35109 8.92339 7.3942 9.03106 7.47153 9.11201C7.5512 9.19194 7.65931 9.2368 7.77211 9.2368C7.88492 9.2368 7.99311 9.19194 8.0727 9.11201L11.8721 5.31261V5.31269C11.9538 5.23402 12 5.12549 12 5.0121C12 4.89863 11.9538 4.7901 11.8721 4.71152L8.07742 0.916846Z" fill="#B69758"/>
</svg>
