<svg width="20" height="15" viewBox="0 0 20 15" fill="none" xmlns="http://www.w3.org/2000/svg">
<path d="M6.53763 0.255697C6.66567 0.102216 6.85228 0.00968224 7.05188 0.00073624C7.25149 -0.00834968 7.44579 0.0669938 7.58711 0.208312C7.72828 0.34963 7.80377 0.543787 7.79468 0.74339C7.7856 0.943137 7.69306 1.12975 7.53958 1.25764L2.42748 6.37547H19.3243C19.5699 6.38861 19.7915 6.52713 19.9106 6.74226C20.0298 6.95724 20.0298 7.21851 19.9106 7.4336C19.7915 7.64873 19.5699 7.78725 19.3243 7.80025H2.42748L7.54745 12.9123C7.67633 13.0474 7.74818 13.2267 7.74818 13.4133C7.74818 13.5999 7.67633 13.7794 7.54745 13.9143C7.41466 14.0475 7.23448 14.1223 7.04648 14.1223C6.85847 14.1223 6.67815 14.0475 6.5455 13.9143L0.213165 7.58196V7.5821C0.0770187 7.45099 0 7.27011 0 7.08113C0 6.892 0.0770187 6.71112 0.213165 6.58015L6.53763 0.255697Z" fill="white"/>
</svg>
