<svg width="20" height="15" viewBox="0 0 20 15" fill="none" xmlns="http://www.w3.org/2000/svg">
<path d="M13.4624 0.255697C13.3343 0.102216 13.1477 0.00968224 12.9481 0.00073624C12.7485 -0.00834968 12.5542 0.0669938 12.4129 0.208312C12.2717 0.34963 12.1962 0.543787 12.2053 0.74339C12.2144 0.943137 12.3069 1.12975 12.4604 1.25764L17.5725 6.37547H0.675673C0.430077 6.38861 0.208513 6.52713 0.0894242 6.74226C-0.0298081 6.95724 -0.0298081 7.21851 0.0894242 7.4336C0.208517 7.64873 0.43007 7.78725 0.675673 7.80025H17.5725L12.4525 12.9123C12.3237 13.0474 12.2518 13.2267 12.2518 13.4133C12.2518 13.5999 12.3237 13.7794 12.4525 13.9143C12.5853 14.0475 12.7655 14.1223 12.9535 14.1223C13.1415 14.1223 13.3218 14.0475 13.4545 13.9143L19.7868 7.58196V7.5821C19.923 7.45099 20 7.27011 20 7.08113C20 6.892 19.923 6.71112 19.7868 6.58015L13.4624 0.255697Z" fill="white"/>
</svg>
