<svg width="13" height="12" viewBox="0 0 13 12" fill="none" xmlns="http://www.w3.org/2000/svg">
<path d="M11.3406 11.9999C11.1561 11.9999 10.9716 11.9262 10.8364 11.7909L0.212165 1.21588C-0.0707216 0.945358 -0.0707216 0.490408 0.212165 0.219884C0.494963 -0.0629146 0.937638 -0.0629146 1.22052 0.219884L11.8447 10.7826C12.1275 11.0654 12.1275 11.5081 11.8447 11.791C11.7094 11.9262 11.525 12 11.3406 12V11.9999Z" fill="white"/>
<path d="M0.716344 11.9999C0.531931 11.9999 0.347426 11.9262 0.212164 11.7909C-0.070634 11.5081 -0.0583594 11.0654 0.212164 10.7825L10.8364 0.207521C11.1192 -0.0752771 11.5618 -0.0630025 11.8447 0.207521C12.1275 0.49032 12.1153 0.932995 11.8447 1.21588L1.22052 11.7909C1.07299 11.9262 0.900836 11.9999 0.716344 11.9999Z" fill="white"/>
</svg>
