<svg width="18" height="20" viewBox="0 0 18 20" fill="none" xmlns="http://www.w3.org/2000/svg">
<g clip-path="url(#clip0_575_5218)">
<path fill-rule="evenodd" clip-rule="evenodd" d="M5.59997 0.799996C5.59997 0.358211 5.95818 0 6.39997 0H11.1999C11.6417 0 11.9999 0.358211 11.9999 0.799996V2.39999H16.7999C17.2417 2.39999 17.5999 2.7582 17.5999 3.19999C17.5999 3.64177 17.2417 3.99998 16.7999 3.99998H0.799996C0.358211 3.99998 0 3.64177 0 3.19999C0 2.7582 0.358211 2.39999 0.799996 2.39999H5.59997V0.799996ZM7.19997 2.39999H10.4V1.59999H7.19997V2.39999Z" fill="#323232"/>
<path d="M7.20039 8.79996C7.64217 8.79996 8.00038 9.15817 8.00038 9.59995V15.9999C8.00038 16.4417 7.64217 16.7999 7.20039 16.7999C6.7586 16.7999 6.40039 16.4417 6.40039 15.9999V9.59995C6.40039 9.15817 6.7586 8.79996 7.20039 8.79996Z" fill="#323232"/>
<path d="M11.1996 9.59995C11.1996 9.15817 10.8414 8.79996 10.3996 8.79996C9.95782 8.79996 9.59961 9.15817 9.59961 9.59995V15.9999C9.59961 16.4417 9.95782 16.7999 10.3996 16.7999C10.8414 16.7999 11.1996 16.4417 11.1996 15.9999V9.59995Z" fill="#323232"/>
<path fill-rule="evenodd" clip-rule="evenodd" d="M1.79539 5.87608C1.94718 5.70091 2.16771 5.60019 2.39968 5.60019H15.1996C15.4316 5.60019 15.6519 5.7009 15.8041 5.87608C15.9559 6.05126 16.0243 6.28376 15.9916 6.51325L14.3593 17.9395C14.1904 19.1218 13.1777 20 11.9834 20H5.61588C4.4216 20 3.40894 19.1218 3.23998 17.9395L1.60767 6.51325C1.57481 6.28378 1.64338 6.0513 1.79535 5.87608H1.79539ZM3.32201 7.20019L4.82395 17.7131C4.8802 18.1073 5.21788 18.4 5.6159 18.4H11.9834C12.3814 18.4 12.7191 18.1073 12.7754 17.7131L14.2773 7.20019H3.32201Z" fill="#323232"/>
</g>
<defs>
<clipPath id="clip0_575_5218">
<rect width="18" height="20" fill="white"/>
</clipPath>
</defs>
</svg>
