<svg width="31" height="17" viewBox="0 0 31 17" fill="none" xmlns="http://www.w3.org/2000/svg">
<path d="M15.6175 0.500004C15.3251 0.498823 15.0871 0.734944 15.0859 1.02732V15.9727C15.0871 16.2651 15.3251 16.5012 15.6175 16.5H30.1804C30.4712 16.4988 30.7066 16.2634 30.7077 15.9727V1.02732C30.7066 0.736596 30.4711 0.501184 30.1804 0.500004H15.6175ZM16.146 1.55889H20.7185V6.10785V6.10761C20.7192 6.30544 20.8298 6.48602 21.0055 6.57654C21.1813 6.66707 21.3926 6.65218 21.554 6.53778L22.8994 5.58031L24.2395 6.53778H24.2393C24.4007 6.65265 24.6125 6.66801 24.7886 6.57749C24.9646 6.48696 25.0755 6.30568 25.076 6.10761V1.55865H29.6485V15.4409H16.1457L16.146 1.55889ZM21.7774 1.55889H24.0172V5.07565L23.2034 4.49752V4.49775C23.0197 4.36729 22.7737 4.36729 22.59 4.49775L21.7774 5.07565V1.55889ZM7.18359 4.61851C7.04248 4.61804 6.90705 4.67382 6.80707 4.7738C6.70733 4.87354 6.65155 5.00897 6.65202 5.15008C6.65273 5.29048 6.70898 5.42497 6.80872 5.524C6.90822 5.6228 7.04319 5.67811 7.18358 5.6774H10.9084C11.0488 5.67811 11.1837 5.6228 11.2832 5.524C11.383 5.42497 11.4392 5.29048 11.4399 5.15008C11.4404 5.00898 11.3846 4.87355 11.2849 4.7738C11.1849 4.67382 11.0495 4.61804 10.9084 4.61851H7.18359ZM3.47847 8.08892H3.4787C3.33807 8.08845 3.20288 8.14376 3.10337 8.24279C3.00363 8.34206 2.94738 8.47679 2.94714 8.61742C2.94643 8.75853 3.00245 8.89396 3.10219 8.99371C3.20193 9.09345 3.33736 9.14947 3.47871 9.14876H10.9084C11.0495 9.14947 11.185 9.09345 11.285 8.99371C11.3847 8.89397 11.4405 8.75853 11.44 8.61742C11.4395 8.47679 11.3835 8.34206 11.2838 8.24279C11.184 8.14376 11.0491 8.08845 10.9084 8.08892H3.47847ZM0.531568 11.5561C0.391172 11.5556 0.256211 11.6109 0.15647 11.7097C0.0569652 11.8087 0.000474939 11.943 2.97984e-06 12.0836C-0.000469705 12.2247 0.0553105 12.3602 0.155054 12.4599C0.254794 12.5596 0.390465 12.6157 0.531574 12.615H10.9086C11.0497 12.6157 11.1852 12.5596 11.2851 12.4599C11.3849 12.3602 11.4407 12.2247 11.4402 12.0836C11.4395 11.943 11.3832 11.8087 11.2835 11.7097C11.184 11.6109 11.049 11.5556 10.9086 11.5561H0.531568Z" fill="#B69758"/>
</svg>
