<svg width="23" height="20" viewBox="0 0 23 20" fill="none" xmlns="http://www.w3.org/2000/svg">
<path d="M13.1774 2.14047H0.836242C0.368027 2.14047 0.00012207 2.50837 0.00012207 2.97659C0.00012207 3.4448 0.368027 3.81271 0.836242 3.81271H13.1774C13.5453 5.05011 14.6823 5.95318 16.0536 5.95318C17.3913 5.95318 18.562 5.05011 18.8966 3.81271H21.9401C22.4083 3.81271 22.7762 3.4448 22.7762 2.97659C22.7762 2.50837 22.4083 2.14047 21.9401 2.14047H18.8966C18.5287 0.903069 17.3916 0 16.0536 0C14.6823 0 13.545 0.903069 13.1771 2.14047H13.1774ZM17.3246 2.97659C17.3246 3.71237 16.7227 4.28094 16.0202 4.28094C15.3178 4.28094 14.7159 3.7124 14.7159 2.97659C14.7159 2.2408 15.3178 1.67224 16.0202 1.67224C16.6891 1.67224 17.3246 2.24077 17.3246 2.97659Z" fill="black"/>
<path d="M3.14387 8.82943H0.83612C0.367905 8.82943 0 9.19734 0 9.66555C0 10.1338 0.367905 10.5017 0.83612 10.5017H3.14387C3.51178 11.7391 4.64883 12.6421 6.02013 12.6421C7.3578 12.6421 8.52849 11.7391 8.86306 10.5017H21.94C22.4082 10.5017 22.7761 10.1338 22.7761 9.66555C22.7761 9.19734 22.4082 8.82943 21.94 8.82943H8.86306C8.49515 7.59203 7.3581 6.68896 6.02013 6.68896C4.64907 6.68896 3.51177 7.59203 3.14387 8.82943ZM7.29109 9.66555C7.29109 10.4013 6.6892 10.9699 5.98674 10.9699C5.28428 10.9699 4.68239 10.4014 4.68239 9.66555C4.68239 8.92977 5.28428 8.36121 5.98674 8.36121C6.6892 8.36121 7.29109 8.92974 7.29109 9.66555Z" fill="black"/>
<path d="M9.16388 16.1873H0.83612C0.367905 16.1873 0 16.5552 0 17.0234C0 17.4916 0.367905 17.8595 0.83612 17.8595H9.16388C9.53179 19.0969 10.6688 20 12.0401 20C13.3778 20 14.5485 19.0969 14.8831 17.8595H21.9399C22.4081 17.8595 22.776 17.4916 22.776 17.0234C22.776 16.5552 22.4081 16.1873 21.9399 16.1873H14.8831C14.5152 14.9499 13.3781 14.0468 12.0401 14.0468C10.6688 14.0468 9.53177 14.9496 9.16388 16.1873ZM13.3111 17.0234C13.3111 17.7592 12.7092 18.3277 12.0067 18.3277C11.3043 18.3277 10.7024 17.7592 10.7024 17.0234C10.7024 16.2876 11.3043 15.7191 12.0067 15.7191C12.709 15.7191 13.3111 16.2876 13.3111 17.0234Z" fill="black"/>
</svg>
