<svg width="23" height="20" viewBox="0 0 23 20" fill="none" xmlns="http://www.w3.org/2000/svg">
<path d="M13.4019 2.14047H1.06073C0.592514 2.14047 0.224609 2.50837 0.224609 2.97659C0.224609 3.4448 0.592514 3.81271 1.06073 3.81271H13.4019C13.7698 5.05011 14.9068 5.95318 16.2781 5.95318C17.6158 5.95318 18.7865 5.05011 19.121 3.81271H22.1646C22.6328 3.81271 23.0007 3.4448 23.0007 2.97659C23.0007 2.50837 22.6328 2.14047 22.1646 2.14047H19.121C18.7531 0.903069 17.6161 0 16.2781 0C14.9068 0 13.7695 0.903069 13.4016 2.14047H13.4019ZM17.5491 2.97659C17.5491 3.71237 16.9472 4.28094 16.2447 4.28094C15.5423 4.28094 14.9404 3.7124 14.9404 2.97659C14.9404 2.2408 15.5423 1.67224 16.2447 1.67224C16.9136 1.67224 17.5491 2.24077 17.5491 2.97659Z" fill="#B69758"/>
<path d="M3.36848 8.82943H1.06073C0.592514 8.82943 0.224609 9.19734 0.224609 9.66555C0.224609 10.1338 0.592514 10.5017 1.06073 10.5017H3.36848C3.73639 11.7391 4.87344 12.6421 6.24473 12.6421C7.58241 12.6421 8.7531 11.7391 9.08766 10.5017H22.1646C22.6328 10.5017 23.0007 10.1338 23.0007 9.66555C23.0007 9.19734 22.6328 8.82943 22.1646 8.82943H9.08766C8.71976 7.59203 7.58271 6.68896 6.24473 6.68896C4.87368 6.68896 3.73637 7.59203 3.36848 8.82943ZM7.5157 9.66555C7.5157 10.4013 6.91381 10.9699 6.21135 10.9699C5.50889 10.9699 4.907 10.4014 4.907 9.66555C4.907 8.92977 5.50889 8.36121 6.21135 8.36121C6.91381 8.36121 7.5157 8.92974 7.5157 9.66555Z" fill="#B69758"/>
<path d="M9.38849 16.1873H1.06073C0.592514 16.1873 0.224609 16.5552 0.224609 17.0234C0.224609 17.4916 0.592514 17.8595 1.06073 17.8595H9.38849C9.75639 19.0969 10.8934 20 12.2647 20C13.6024 20 14.7731 19.0969 15.1077 17.8595H22.1645C22.6327 17.8595 23.0006 17.4916 23.0006 17.0234C23.0006 16.5552 22.6327 16.1873 22.1645 16.1873H15.1077C14.7398 14.9499 13.6027 14.0468 12.2647 14.0468C10.8934 14.0468 9.75638 14.9497 9.38849 16.1873ZM13.5357 17.0234C13.5357 17.7592 12.9338 18.3278 12.2314 18.3278C11.5289 18.3278 10.927 17.7592 10.927 17.0234C10.927 16.2876 11.5289 15.7191 12.2314 15.7191C12.9336 15.7191 13.5357 16.2876 13.5357 17.0234Z" fill="#B69758"/>
</svg>
