<svg width="18" height="19" viewBox="0 0 18 19" fill="none" xmlns="http://www.w3.org/2000/svg">
<g clip-path="url(#clip0_591_18620)">
<path d="M10.6002 17.2134C6.85198 17.9971 3.10838 15.9783 1.69692 12.4142C0.356299 9.02994 1.5033 5.21624 4.41849 3.12509L4.1396 5.01095C4.0939 5.31894 4.30621 5.60555 4.61369 5.6513C4.64164 5.65539 4.66928 5.65743 4.69676 5.65743C4.97125 5.65743 5.21137 5.45609 5.25282 5.17626L5.68277 2.26969C5.70475 2.12182 5.66706 1.97113 5.57802 1.85109C5.48883 1.73092 5.35598 1.65133 5.20836 1.62946L2.30714 1.19972C1.99495 1.15394 1.71353 1.36708 1.66802 1.67492C1.62248 1.98291 1.83479 2.26953 2.14211 2.31511L3.37922 2.49852C0.330535 4.9398 -0.822591 9.11181 0.650575 12.8298C2.03108 16.3163 5.36374 18.5093 8.98143 18.5093C9.592 18.5093 10.2113 18.4468 10.8302 18.3174C11.1345 18.2538 11.3297 17.9553 11.2663 17.6503C11.2025 17.3453 10.9028 17.1496 10.6002 17.2136L10.6002 17.2134ZM16.1287 16.6021L14.7772 16.4014C17.7155 13.9442 18.8074 9.84733 17.3577 6.18935C15.7441 2.11579 11.4626 -0.191593 7.17998 0.70277C6.87564 0.76616 6.68012 1.06471 6.74372 1.36957C6.80716 1.67473 7.10553 1.87104 7.40941 1.80657C11.1569 1.02399 14.8997 3.04293 16.3115 6.60576C17.6094 9.88104 16.5779 13.5585 13.8688 15.6879L14.1322 13.9071C14.1779 13.5991 13.9656 13.3125 13.6581 13.2668C13.3519 13.2216 13.0645 13.4338 13.019 13.7417L12.589 16.6473C12.567 16.7951 12.6046 16.9458 12.6938 17.0659C12.7826 17.186 12.9155 17.2659 13.0634 17.2878L15.964 17.7183C15.992 17.7224 16.0196 17.7244 16.0471 17.7244C16.3216 17.7244 16.5617 17.5231 16.6031 17.2433C16.6487 16.935 16.4364 16.6484 16.1287 16.6026L16.1287 16.6021Z" fill="white"/>
</g>
<defs>
<clipPath id="clip0_591_18620">
<rect width="18" height="18" fill="white" transform="translate(0 0.5)"/>
</clipPath>
</defs>
</svg>
