<svg width="166" height="80" viewBox="0 0 166 80" fill="none" xmlns="http://www.w3.org/2000/svg">
<path d="M56.9196 31.6052C59.181 31.126 59.7767 29.6025 59.7767 28.0789V4.65573C59.7767 3.13218 59.1223 1.60864 56.9196 1.12944H72.2765C83.7047 1.12944 93.3467 7.96472 93.3467 16.3673C93.3467 24.7262 84.5376 31.6052 72.9912 31.6052H56.9196ZM63.8235 1.65243V31.0393H68.704C80.9055 31.0393 88.7628 25.2929 88.7628 16.3682C88.7628 7.44338 80.9658 1.65243 68.704 1.65243H63.8235Z" fill="white"/>
<path d="M107.591 1.12861C105.33 1.60782 104.734 3.13136 104.734 4.6549V28.0773C104.734 29.6008 105.389 31.1244 107.591 31.6036H92.2346C80.8064 31.6036 71.1644 24.7683 71.1644 16.3657C71.1644 8.00686 79.9735 1.12778 91.5199 1.12778H107.591V1.12861ZM100.687 31.0806V1.69457H95.8063C83.6048 1.69457 75.7474 7.4409 75.7474 16.3657C75.7474 25.2905 83.5444 31.0806 95.8063 31.0806H100.687Z" fill="white"/>
<path d="M87.0608 15.9402C87.0608 19.3987 85.6744 22.3202 83.1702 24.5113C82.5943 25.0145 81.7499 25.0104 81.1823 24.4973C78.7689 22.3177 77.4495 19.4161 77.4495 15.9402V15.7873C79.0672 15.8129 80.599 15.6254 82.0424 15.0214C83.3833 14.4637 84.7623 14.1192 86.2057 14.068C86.5337 14.0556 86.7634 14.0465 86.9253 14.0556C87.0146 14.6629 87.0608 15.2933 87.0608 15.9402Z" fill="white"/>
<path d="M31.126 57.1237C31.126 58.7473 30.8443 60.3567 30.28 61.9513C29.7157 63.5467 28.863 64.9844 27.722 66.2633C26.5802 67.5423 25.136 68.5743 23.3893 69.3583C21.6419 70.1424 19.5995 70.5341 17.2621 70.5341H8.80333C8.08783 70.5341 7.27648 70.5547 6.36847 70.596C5.46046 70.6373 4.57972 70.6853 3.72789 70.7406C3.67253 70.4655 3.64527 70.2457 3.64527 70.0805C3.64527 69.6954 3.79646 69.4757 4.09886 69.4203C5.11593 69.1724 5.84548 68.9395 6.28585 68.7189C6.7254 68.4991 6.946 68.1413 6.946 67.6456V46.6432C6.946 46.0929 6.73944 45.7079 6.32716 45.4881C5.91488 45.2684 5.17211 45.0618 4.09886 44.8693C3.93362 44.842 3.81629 44.7594 3.74772 44.6214C3.67914 44.4843 3.64444 44.3323 3.64444 44.1679C3.64444 44.0034 3.6717 43.7828 3.72706 43.5077C4.30459 43.5639 4.8061 43.5978 5.23325 43.611C5.65958 43.625 6.06525 43.6457 6.45109 43.6729C6.83611 43.701 7.21452 43.7143 7.58549 43.7143C7.95646 43.7143 8.34891 43.7143 8.76202 43.7143H17.2208C19.5317 43.7143 21.5601 44.072 23.3067 44.7875C25.0533 45.503 26.505 46.4656 27.6601 47.676C28.8151 48.8864 29.6818 50.3033 30.2593 51.926C30.8377 53.5479 31.126 55.2813 31.126 57.1237ZM26.7942 57.9078C26.7942 53.6718 25.7416 50.5289 23.6372 48.479C21.5328 46.43 18.4585 45.4047 14.415 45.4047H10.8259V67.3564C10.8259 67.6316 10.8937 67.8654 11.0316 68.0579C11.1688 68.2504 11.4026 68.4024 11.7331 68.5115C12.0636 68.6214 12.5172 68.704 13.0947 68.7593C13.6722 68.8147 14.4009 68.842 15.2817 68.842C17.4001 68.842 19.188 68.5883 20.6463 68.0785C22.1038 67.5696 23.2869 66.8409 24.1949 65.8915C25.1029 64.9422 25.7631 63.7938 26.1753 62.4454C26.5876 61.0995 26.7942 59.5859 26.7942 57.9078Z" fill="white"/>
<path d="M36.9773 57.1237C36.9773 55.2259 37.321 53.438 38.0092 51.7591C38.6967 50.0811 39.6319 48.6096 40.8151 47.3438C41.9974 46.0789 43.3739 45.0742 44.9412 44.3314C46.5093 43.5887 48.1601 43.2177 49.8927 43.2177C52.2862 43.2177 54.3766 43.5961 56.1645 44.3529C57.9524 45.1097 59.4305 46.1276 60.6005 47.4066C61.7695 48.6856 62.6437 50.1645 63.2204 51.8426C63.7979 53.5206 64.0871 55.2813 64.0871 57.1246C64.0871 59.2983 63.7293 61.2441 63.0138 62.9634C62.2983 64.6828 61.3151 66.1411 60.0634 67.3374C58.8117 68.5338 57.3402 69.4484 55.6481 70.0813C53.956 70.7142 52.1474 71.0306 50.2224 71.0306C48.2692 71.0306 46.4813 70.7001 44.8577 70.04C43.2342 69.3798 41.8387 68.4379 40.6697 67.2135C39.4997 65.9899 38.5925 64.5242 37.9464 62.8188C37.3003 61.1127 36.9773 59.2149 36.9773 57.1237ZM51.1717 69.0485C52.4647 69.0485 53.6479 68.8006 54.7203 68.3057C55.7935 67.8108 56.7148 67.1234 57.4848 66.2427C58.2548 65.3628 58.853 64.3176 59.2793 63.1064C59.7057 61.8968 59.9188 60.5765 59.9188 59.1455C59.9188 57.1651 59.7123 55.3284 59.3 53.6363C58.8877 51.945 58.2614 50.4735 57.422 49.2218C56.5826 47.9701 55.5242 46.9869 54.2444 46.2714C52.9654 45.5567 51.4732 45.1981 49.7671 45.1981C48.6385 45.1981 47.5595 45.4121 46.5284 45.8376C45.4964 46.2648 44.5892 46.8836 43.8051 47.6941C43.0211 48.5055 42.3956 49.5027 41.928 50.6859C41.4603 51.869 41.2265 53.2306 41.2265 54.7707C41.2265 56.8065 41.4463 58.6977 41.8867 60.4443C42.3262 62.1918 42.9657 63.7046 43.8051 64.9835C44.6438 66.2625 45.6823 67.2598 46.92 67.9753C48.1593 68.6916 49.5754 69.0485 51.1717 69.0485Z" fill="white"/>
<path d="M88.548 47.0142C88.6579 46.7118 88.7133 46.4366 88.7133 46.1888C88.7133 45.8038 88.5208 45.5146 88.1357 45.3221C87.7499 45.1296 87.1311 44.9784 86.2792 44.8685C85.9488 44.8412 85.7843 44.6074 85.7843 44.167C85.7843 44.0299 85.7976 43.9059 85.8256 43.7961C85.8256 43.7134 85.8389 43.6176 85.867 43.5069C85.9215 43.5069 86.1008 43.5218 86.4032 43.5482C86.7056 43.5763 87.0699 43.6044 87.4963 43.6308C87.9226 43.6589 88.3836 43.6796 88.8785 43.6928C89.3734 43.7068 89.841 43.7134 90.2814 43.7134C91.1894 43.7134 92.0206 43.687 92.7774 43.6308C93.5334 43.5763 93.9804 43.535 94.1184 43.5069C94.1184 43.5895 94.1316 43.687 94.1597 43.7961C94.1597 43.8787 94.1663 43.9547 94.1803 44.0233C94.1936 44.0918 94.201 44.1538 94.201 44.2083C94.201 44.6487 94.0498 44.8966 93.7474 44.9511C92.8658 45.0065 92.2206 45.1436 91.8083 45.3634C91.396 45.584 91.0787 45.955 90.8589 46.4771L80.6659 70.9885C80.6106 70.9885 80.5486 70.9951 80.4809 71.0091C80.4123 71.0223 80.3495 71.0298 80.295 71.0298C79.9917 71.0298 79.7447 70.796 79.5522 70.3283L69.8557 46.2714C69.6905 45.8864 69.4153 45.5972 69.0303 45.4047C68.6445 45.2122 67.9571 45.0478 66.9673 44.9098C66.664 44.8825 66.5137 44.6347 66.5137 44.167C66.5137 43.9473 66.5409 43.7275 66.5963 43.5069C67.4217 43.5631 68.3157 43.6102 69.2782 43.6515C70.2407 43.6928 71.0793 43.7134 71.7957 43.7134C72.4831 43.7134 73.3225 43.6928 74.3132 43.6515C75.3038 43.6102 76.2242 43.5631 77.0777 43.5069C77.1322 43.782 77.1603 44.0018 77.1603 44.167C77.1603 44.5793 76.995 44.814 76.6654 44.8685C75.0419 45.0337 74.2314 45.4741 74.2314 46.1888C74.2314 46.3813 74.2578 46.5597 74.314 46.725L81.3285 64.6745L88.548 47.0142Z" fill="white"/>
<path d="M106.877 67.6456C106.877 68.1959 107.068 68.5743 107.454 68.7808C107.839 68.9874 108.554 69.2005 109.6 69.4203C109.875 69.4757 110.012 69.6954 110.012 70.0805C110.012 70.2457 109.984 70.4663 109.93 70.7406C109.077 70.6852 108.224 70.6373 107.372 70.596C106.519 70.5547 105.707 70.534 104.938 70.534C104.195 70.534 103.376 70.5547 102.482 70.596C101.588 70.6373 100.742 70.6852 99.9448 70.7406C99.8895 70.4655 99.8622 70.2457 99.8622 70.0805C99.8622 69.6954 99.9994 69.4757 100.274 69.4203C101.32 69.2278 102.034 69.0221 102.42 68.8015C102.805 68.5817 102.998 68.1967 102.998 67.6464V46.6432C102.998 46.0929 102.805 45.7013 102.42 45.4675C102.034 45.2337 101.32 45.0337 100.274 44.8685C100.109 44.8412 99.9994 44.7586 99.944 44.6206C99.8887 44.4835 99.8614 44.3314 99.8614 44.167C99.8614 44.0026 99.8887 43.782 99.944 43.5069C100.769 43.5631 101.629 43.6102 102.523 43.6515C103.417 43.6928 104.221 43.7134 104.937 43.7134C105.623 43.7134 106.415 43.6928 107.309 43.6515C108.203 43.6102 109.076 43.5631 109.929 43.5069C109.983 43.782 110.011 44.0018 110.011 44.167C110.011 44.5793 109.873 44.814 109.599 44.8685C108.553 45.0337 107.839 45.2337 107.453 45.4675C107.068 45.7013 106.876 46.0929 106.876 46.6432V67.6456H106.877Z" fill="white"/>
<path d="M138.74 63.9731V46.725C138.74 46.1202 138.519 45.693 138.08 45.446C137.639 45.1981 136.897 45.0065 135.851 44.8685C135.548 44.8412 135.398 44.6074 135.398 44.167C135.398 44.0018 135.425 43.782 135.48 43.5069C136.168 43.5631 136.869 43.6102 137.585 43.6515C138.299 43.6928 138.974 43.7134 139.606 43.7134C140.211 43.7134 140.844 43.6928 141.504 43.6515C142.164 43.6102 142.81 43.5631 143.443 43.5069C143.498 43.782 143.526 44.0018 143.526 44.167C143.526 44.6074 143.388 44.8412 143.114 44.8685C142.179 45.0065 141.538 45.199 141.194 45.446C140.85 45.6939 140.679 46.0929 140.679 46.6424V70.9472C140.624 70.9744 140.528 70.9943 140.39 71.0091C140.252 71.0223 140.142 71.0298 140.059 71.0298C139.867 71.0298 139.688 70.981 139.523 70.8852C139.358 70.7885 139.165 70.5894 138.946 70.287L122.193 48.2114V67.6464C122.193 68.1967 122.386 68.5817 122.771 68.8015C123.156 69.0221 123.898 69.2286 124.998 69.4203C125.273 69.4757 125.41 69.6954 125.41 70.0805C125.41 70.2457 125.382 70.4663 125.328 70.7406C124.64 70.6852 123.946 70.6373 123.244 70.596C122.543 70.5547 121.889 70.534 121.284 70.534C120.734 70.534 120.088 70.5547 119.345 70.596C118.602 70.6373 117.928 70.6852 117.323 70.7406C117.268 70.4655 117.241 70.2457 117.241 70.0805C117.241 69.6954 117.392 69.4757 117.694 69.4203C118.685 69.2278 119.351 69.0221 119.696 68.8015C120.039 68.5817 120.212 68.1967 120.212 67.6464V46.4375C120.212 45.9979 120.053 45.6608 119.737 45.427C119.42 45.1932 118.768 45.0073 117.777 44.8693C117.474 44.8148 117.323 44.5801 117.323 44.1679C117.323 44.0307 117.337 43.9068 117.365 43.7969C117.365 43.7143 117.378 43.6184 117.406 43.5077C117.956 43.5639 118.479 43.6052 118.974 43.6316C119.414 43.6597 119.882 43.6804 120.377 43.6936C120.872 43.7077 121.312 43.7143 121.697 43.7143C122.495 43.7143 123.024 43.7424 123.285 43.7969C123.547 43.8531 123.761 43.9894 123.925 44.2092L138.74 63.9731Z" fill="white"/>
<path d="M157.73 67.6456C157.73 68.1959 157.921 68.5743 158.307 68.7808C158.692 68.9874 159.407 69.2005 160.453 69.4203C160.728 69.4757 160.865 69.6954 160.865 70.0805C160.865 70.2457 160.837 70.4663 160.782 70.7406C159.93 70.6852 159.076 70.6373 158.224 70.596C157.372 70.5547 156.56 70.534 155.79 70.534C155.048 70.534 154.229 70.5547 153.335 70.596C152.441 70.6373 151.595 70.6852 150.798 70.7406C150.742 70.4655 150.715 70.2457 150.715 70.0805C150.715 69.6954 150.852 69.4757 151.127 69.4203C152.172 69.2278 152.887 69.0221 153.273 68.8015C153.658 68.5817 153.85 68.1967 153.85 67.6464V46.6432C153.85 46.0929 153.658 45.7013 153.273 45.4675C152.887 45.2337 152.172 45.0337 151.127 44.8685C150.962 44.8412 150.852 44.7586 150.797 44.6206C150.741 44.4835 150.714 44.3314 150.714 44.167C150.714 44.0026 150.741 43.782 150.797 43.5069C151.622 43.5631 152.481 43.6102 153.375 43.6515C154.269 43.6928 155.074 43.7134 155.79 43.7134C156.476 43.7134 157.268 43.6928 158.162 43.6515C159.056 43.6102 159.929 43.5631 160.782 43.5069C160.836 43.782 160.864 44.0018 160.864 44.167C160.864 44.5793 160.726 44.814 160.452 44.8685C159.406 45.0337 158.691 45.2337 158.306 45.4675C157.92 45.7013 157.729 46.0929 157.729 46.6432V67.6456H157.73Z" fill="white"/>
</svg>
