<svg width="18" height="18" viewBox="0 0 18 18" fill="none" xmlns="http://www.w3.org/2000/svg">
<path d="M17.9742 6.9348C17.9121 6.74386 17.7472 6.60471 17.5485 6.57589L11.9684 5.76501L9.47288 0.708613C9.38408 0.528614 9.20074 0.414673 9.00003 0.414673C8.79929 0.414673 8.61598 0.528614 8.52715 0.708613L6.03148 5.76501L0.451505 6.57589C0.252908 6.60471 0.0878505 6.74386 0.0258351 6.93476C-0.0362154 7.12569 0.0155344 7.33526 0.159288 7.47536L4.1969 11.4112L3.24389 16.9688C3.20992 17.1667 3.29128 17.3666 3.45366 17.4846C3.54552 17.5513 3.65433 17.5853 3.76367 17.5853C3.84762 17.5853 3.93185 17.5653 4.00899 17.5247L9 14.9007L13.9908 17.5247C14.1685 17.6181 14.3838 17.6025 14.5462 17.4845C14.7085 17.3666 14.7899 17.1666 14.756 16.9687L13.8027 11.4112L17.8407 7.47532C17.9845 7.33526 18.0362 7.12569 17.9742 6.9348Z" fill="#E3E3E3"/>
</svg>
