<svg width="12" height="12" viewBox="0 0 12 12" fill="none" xmlns="http://www.w3.org/2000/svg">
<g clip-path="url(#clip0_540_534)">
<path d="M11.9828 4.62321C11.9414 4.49592 11.8314 4.40315 11.699 4.38393L7.97896 3.84335L6.31526 0.472419C6.25605 0.352419 6.13383 0.276459 6.00002 0.276459C5.8662 0.276459 5.74399 0.352419 5.68477 0.472419L4.02099 3.84335L0.301007 4.38393C0.168609 4.40315 0.0585708 4.49592 0.0172272 4.62318C-0.0241398 4.75047 0.0103601 4.89018 0.106196 4.98358L2.79794 7.60749L2.16259 11.3125C2.13995 11.4445 2.19419 11.5777 2.30244 11.6564C2.36369 11.7009 2.43623 11.7235 2.50912 11.7235C2.56508 11.7235 2.62124 11.7102 2.67266 11.6831L6 9.93382L9.3272 11.6831C9.44567 11.7454 9.58918 11.735 9.69744 11.6564C9.8057 11.5777 9.85995 11.4444 9.83734 11.3125L9.20178 7.60749L11.8938 4.98356C11.9896 4.89018 12.0242 4.75047 11.9828 4.62321Z" fill="#B69758"/>
</g>
<defs>
<clipPath id="clip0_540_534">
<rect width="12" height="12" fill="white"/>
</clipPath>
</defs>
</svg>
