<svg width="14" height="26" viewBox="0 0 14 26" fill="none" xmlns="http://www.w3.org/2000/svg">
<path d="M11.8692 7.37786C11.8692 10.0034 9.73324 12.1387 7.10816 12.1387C4.58972 12.1387 2.50186 10.1764 2.34994 7.66825L2.34974 7.65233C2.34692 7.56749 2.34692 7.48024 2.34692 7.37767V7.35712C2.34692 7.33374 2.34672 7.31097 2.34752 7.28901L2.34833 7.27692L2.34853 7.26422L2.34994 7.20639L2.35014 7.181V7.17112C2.35014 7.1413 2.34994 7.11228 2.35135 7.08307L2.35196 7.07097L2.35216 7.05888C2.36284 6.56297 2.3973 6.10412 2.45876 5.64851C2.50813 5.25013 2.57805 4.85759 2.66308 4.47271H11.555C11.6403 4.85456 11.7096 5.24428 11.7596 5.63985C11.8182 6.11541 11.8528 6.59925 11.8627 7.09412L11.8653 7.15336C11.8698 7.22207 11.8692 7.28817 11.8692 7.35648V7.37784L11.8692 7.37786ZM12.4062 25.4878C12.6839 25.4962 12.9054 25.7223 12.9054 26H1.3067C1.3067 25.7221 1.52836 25.4962 1.80584 25.4878C4.51072 25.4051 6.62632 24.6595 6.62632 23.7498L6.62653 15.1792C6.06877 14.9805 5.66774 14.449 5.66774 13.8226C5.66774 13.7654 5.67842 13.7114 5.68487 13.6562C2.9218 13.0331 0.828122 10.642 0.670113 7.7279V7.70996C0.666687 7.60155 0.666687 7.48992 0.666687 7.37768C0.666687 7.31259 0.666687 7.24791 0.670113 7.18624C0.670113 7.12116 0.670113 7.05647 0.673538 6.99119C0.68442 6.46041 0.724319 5.94053 0.792832 5.43153C1.056 3.30421 1.75667 1.41584 2.73882 0H11.4708C12.4562 1.41558 13.1609 3.30049 13.4277 5.43101C13.4928 5.95471 13.5321 6.49637 13.543 7.04509C13.5502 7.15713 13.5502 7.26554 13.5502 7.37738C13.5502 10.4482 11.4021 13.0085 8.53027 13.657C8.53671 13.7118 8.54699 13.7656 8.54699 13.8222C8.54699 14.4485 8.14639 14.9829 7.58501 15.1788V23.7493C7.58541 24.659 9.70165 25.4045 12.4065 25.4873L12.4062 25.4878ZM7.10832 12.861C10.1324 12.861 12.5914 10.4013 12.5914 7.37786C12.5914 7.28678 12.592 7.19872 12.5862 7.10724L12.5842 7.06452C12.5743 6.55994 12.5382 6.05033 12.4762 5.55098C12.4302 5.18544 12.3667 4.82614 12.2928 4.47292H12.2962C12.2914 4.45116 12.2847 4.43101 12.2801 4.40904C12.2186 4.12452 12.1489 3.84464 12.0703 3.57077C12.0548 3.51696 12.0379 3.46437 12.0218 3.41138C11.947 3.16271 11.8652 2.91909 11.7765 2.68169C11.7626 2.64461 11.7499 2.60632 11.7358 2.56924C11.6365 2.31131 11.5279 2.06305 11.4128 1.82165C11.3862 1.76705 11.3594 1.71324 11.3324 1.65904C11.2127 1.41925 11.0884 1.18489 10.9538 0.965048C10.953 0.963235 10.9517 0.96122 10.9509 0.959205H3.25787C3.25606 0.96263 3.25445 0.966056 3.25243 0.969683C3.12004 1.18752 2.99773 1.41884 2.87984 1.65604C2.85183 1.71186 2.82402 1.76748 2.79722 1.8245C2.68397 2.06369 2.57677 2.30953 2.47863 2.56466C2.46251 2.60718 2.448 2.65131 2.43208 2.69443C2.34745 2.92274 2.26967 3.15669 2.19773 3.3959C2.17919 3.45776 2.15964 3.51782 2.14191 3.58048C2.06614 3.84809 1.99844 4.12131 1.93879 4.39942C1.93355 4.424 1.92569 4.44758 1.92065 4.47277H1.92468C1.85073 4.82903 1.78745 5.19054 1.74151 5.55948C1.67803 6.02981 1.64076 6.51827 1.62947 7.04321C1.62725 7.09117 1.62746 7.13893 1.62746 7.18668L1.62564 7.24452C1.62302 7.28724 1.62363 7.33257 1.62363 7.37771C1.62363 7.47907 1.62363 7.57942 1.62685 7.67695L1.62705 7.6971C1.79592 10.5944 4.1991 12.8609 7.1081 12.8609L7.10832 12.861Z" fill="white"/>
</svg>
